<?xml version="1.0" encoding="UTF-8" standalone="no"?>
<!-- Created with Inkscape (http://www.inkscape.org/) -->

<svg
   width="64pt"
   height="64pt"
   viewBox="0 0 22.577778 22.577778"
   version="1.1"
   id="svg831"
   inkscape:version="1.1.2 (b8e25be833, 2022-02-05)"
   sodipodi:docname="Export - Unblash - 64px.svg"
   inkscape:export-filename="E:\Icon Design\TR Icon Design Project\Carlos - Icon Design Project\Desember\Done\Expand\06 - Ampoule.png"
   inkscape:export-xdpi="576"
   inkscape:export-ydpi="576"
   xmlns:inkscape="http://www.inkscape.org/namespaces/inkscape"
   xmlns:sodipodi="http://sodipodi.sourceforge.net/DTD/sodipodi-0.dtd"
   xmlns="http://www.w3.org/2000/svg"
   xmlns:svg="http://www.w3.org/2000/svg"
   xmlns:rdf="http://www.w3.org/1999/02/22-rdf-syntax-ns#"
   xmlns:cc="http://creativecommons.org/ns#"
   xmlns:dc="http://purl.org/dc/elements/1.1/">
  <defs
     id="defs825">
    <pattern
       id="EMFhbasepattern"
       patternUnits="userSpaceOnUse"
       width="6"
       height="6"
       x="0"
       y="0" />
    <pattern
       id="EMFhbasepattern-9"
       patternUnits="userSpaceOnUse"
       width="6"
       height="6"
       x="0"
       y="0" />
    <pattern
       id="EMFhbasepattern-0"
       patternUnits="userSpaceOnUse"
       width="6"
       height="6"
       x="0"
       y="0" />
    <pattern
       id="EMFhbasepattern-7"
       patternUnits="userSpaceOnUse"
       width="6"
       height="6"
       x="0"
       y="0" />
    <pattern
       id="EMFhbasepattern-2"
       patternUnits="userSpaceOnUse"
       width="6"
       height="6"
       x="0"
       y="0" />
    <pattern
       id="EMFhbasepattern-98"
       patternUnits="userSpaceOnUse"
       width="6"
       height="6"
       x="0"
       y="0" />
    <pattern
       id="EMFhbasepattern-6"
       patternUnits="userSpaceOnUse"
       width="6"
       height="6"
       x="0"
       y="0" />
    <pattern
       id="EMFhbasepattern-01"
       patternUnits="userSpaceOnUse"
       width="6"
       height="6"
       x="0"
       y="0" />
    <pattern
       id="EMFhbasepattern-07"
       patternUnits="userSpaceOnUse"
       width="6"
       height="6"
       x="0"
       y="0" />
    <pattern
       id="EMFhbasepattern-8"
       patternUnits="userSpaceOnUse"
       width="6"
       height="6"
       x="0"
       y="0" />
    <pattern
       id="EMFhbasepattern-4"
       patternUnits="userSpaceOnUse"
       width="6"
       height="6"
       x="0"
       y="0" />
    <pattern
       id="EMFhbasepattern-40"
       patternUnits="userSpaceOnUse"
       width="6"
       height="6"
       x="0"
       y="0" />
    <pattern
       id="EMFhbasepattern-08"
       patternUnits="userSpaceOnUse"
       width="6"
       height="6"
       x="0"
       y="0" />
    <pattern
       id="EMFhbasepattern-04"
       patternUnits="userSpaceOnUse"
       width="6"
       height="6"
       x="0"
       y="0" />
    <pattern
       id="EMFhbasepattern-014"
       patternUnits="userSpaceOnUse"
       width="6"
       height="6"
       x="0"
       y="0" />
    <pattern
       id="EMFhbasepattern-27"
       patternUnits="userSpaceOnUse"
       width="6"
       height="6"
       x="0"
       y="0" />
    <pattern
       id="EMFhbasepattern-09"
       patternUnits="userSpaceOnUse"
       width="6"
       height="6"
       x="0"
       y="0" />
    <pattern
       id="EMFhbasepattern-5"
       patternUnits="userSpaceOnUse"
       width="6"
       height="6"
       x="0"
       y="0" />
    <pattern
       id="EMFhbasepattern-018"
       patternUnits="userSpaceOnUse"
       width="6"
       height="6"
       x="0"
       y="0" />
  </defs>
  <sodipodi:namedview
     id="base"
     pagecolor="#ffffff"
     bordercolor="#666666"
     borderopacity="1.0"
     inkscape:pageopacity="0.0"
     inkscape:pageshadow="2"
     inkscape:zoom="3.421875"
     inkscape:cx="42.666667"
     inkscape:cy="42.666667"
     inkscape:document-units="pt"
     inkscape:current-layer="layer1"
     showgrid="false"
     units="pt"
     inkscape:window-width="958"
     inkscape:window-height="1041"
     inkscape:window-x="953"
     inkscape:window-y="0"
     inkscape:window-maximized="0"
     inkscape:pagecheckerboard="true"
     inkscape:showpageshadow="false"
     inkscape:object-paths="true"
     inkscape:snap-intersection-paths="true"
     inkscape:snap-smooth-nodes="true"
     inkscape:snap-midpoints="true"
     showguides="true"
     inkscape:snap-bbox="true"
     inkscape:bbox-nodes="true"
     inkscape:snap-nodes="false"
     inkscape:snap-global="true"
     inkscape:snap-others="false">
    <inkscape:grid
       type="xygrid"
       id="grid1378" />
    <sodipodi:guide
       position="0.97013831,21.607643"
       orientation="78.000048,0"
       id="guide1380"
       inkscape:locked="false" />
    <sodipodi:guide
       position="0.97013831,0.97013129"
       orientation="0,78.000005"
       id="guide1382"
       inkscape:locked="false" />
    <sodipodi:guide
       position="21.607639,0.97013129"
       orientation="-78.000048,0"
       id="guide1384"
       inkscape:locked="false" />
    <sodipodi:guide
       position="21.607639,21.607643"
       orientation="0,-78.000005"
       id="guide1386"
       inkscape:locked="false" />
  </sodipodi:namedview>
  <metadata
     id="metadata828">
    <rdf:RDF>
      <cc:Work
         rdf:about="">
        <dc:format>image/svg+xml</dc:format>
        <dc:type
           rdf:resource="http://purl.org/dc/dcmitype/StillImage" />
      </cc:Work>
    </rdf:RDF>
  </metadata>
  <g
     inkscape:label="Icon"
     inkscape:groupmode="layer"
     id="layer1"
     transform="translate(0,-274.42223)">
    <path
       id="path37200"
       style="color:#000000;display:inline;fill:#000000;stroke-width:1;stroke-linecap:round;stroke-linejoin:round;-inkscape-stroke:none"
       d="m 3.3390819,283.07716 c -0.2152926,0.28025 -0.3434264,0.6305 -0.3434264,1.00888 v 0.33046 c 0,0.52934 0.2857971,1.01749 0.7419142,1.28101 l 1.6114745,0.92983 c 0.2406064,0.86105 0.639353,1.62967 1.2952709,2.40458 v 0.36091 c 0,0.52845 0.28297,1.01826 0.7399698,1.28361 l 0.2572396,0.14967 v 0.98944 l -5.1127215,1.86418 c -0.7029696,0.27329 -1.1701937,0.9397 -1.1909517,1.68664 -0.1835468,-7.3e-4 -0.3326609,0.14723 -0.3333742,0.33046 -6.634e-4,0.18423 0.1488122,0.33377 0.3330492,0.33304 H 21.242841 c 0.183224,-7.3e-4 0.331176,-0.14983 0.330459,-0.33304 -6.97e-4,-0.18222 -0.148246,-0.33046 -0.330783,-0.33046 -0.02076,-0.74694 -0.487982,-1.41335 -1.190949,-1.68664 l -5.112076,-1.86353 v -0.99074 l 0.256591,-0.14902 c 0.456996,-0.26535 0.737381,-0.75515 0.737378,-1.28361 v -0.36091 c 0.655763,-0.77473 1.054647,-1.54311 1.295271,-2.40394 l 1.611475,-0.93047 c 0.456116,-0.26352 0.741914,-0.75167 0.741914,-1.28101 v -0.33046 c 0,-0.74697 -0.499837,-1.38384 -1.181878,-1.59009 0.07701,-0.27659 0.09903,-0.59371 0.08489,-0.93695 -0.02256,-0.54708 -0.157082,-1.1566 -0.4283,-1.72163 -0.271219,-0.56505 -0.684516,-1.08957 -1.273889,-1.42551 -0.206003,-0.11749 -0.432045,-0.21005 -0.677765,-0.27344 -1.491711,-1.47493 -2.784557,-2.2402 -3.96292,-2.56009 -0.485511,-0.13179 -0.948656,-0.18638 -1.392465,-0.18596 -0.648641,6e-4 -1.2555838,0.11849 -1.8278938,0.2838 -0.9638908,0.27844 -1.8410794,0.68175 -2.7181895,0.90585 -0.8771105,0.22411 -1.74081,0.28293 -2.7492861,-0.10144 -0.2814446,-0.0755 -0.4587478,0.10571 -0.4587478,0.30486 0,0.38705 0.093969,0.86635 0.3868333,1.30564 0.1494855,0.22423 0.3527453,0.43433 0.6129675,0.61102 -0.6851675,0.13241 -1.2955639,0.10094 -1.8155802,-0.20475 -0.3108481,-0.17947 -0.556891,0.15164 -0.494395,0.38489 0.3604388,1.08132 1.2493901,1.64329 2.0320007,1.92184 -0.6026797,0.29651 -1.2767036,0.29834 -2.0494942,0.29677 -0.354434,0 -0.4722999,0.3247 -0.2277631,0.56923 0.5353765,0.53665 1.1070373,1.10979 1.8988441,1.40704 z m 1.9684199,-4.21954 c 0.044134,-0.17726 -0.063328,-0.35684 -0.2403932,-0.40174 -0.5940907,-0.14852 -0.9265592,-0.42762 -1.1313384,-0.73478 -0.097609,-0.14642 -0.1647961,-0.30309 -0.2086409,-0.45682 0.9505219,0.25036 1.8271692,0.16959 2.640434,-0.0382 0.9557749,-0.24421 1.8374116,-0.6508 2.7382765,-0.91103 0.5630402,-0.16264 1.1287852,-0.27184 1.7313472,-0.26112 0.361539,0.006 0.736457,0.056 1.131338,0.16328 0.891739,0.24207 1.899422,0.78567 3.076511,1.83437 -0.162281,0.0125 -0.330112,0.0341 -0.502816,0.0687 -0.178783,0.0365 -0.294578,0.21043 -0.259185,0.38942 0.03523,0.17985 0.209596,0.29706 0.389425,0.26179 0.719192,-0.14592 1.256017,-0.0883 1.782537,0.21576 0.447361,0.255 0.777923,0.66482 1.004337,1.13652 0.226414,0.4717 0.343299,1.00324 0.362209,1.46179 0.01418,0.34392 -0.03762,0.64891 -0.104323,0.83976 l -0.466855,10e-4 c -0.103959,0 -0.20425,0.0678 -0.248497,0.12501 l -2.315158,2.92975 -2.030057,-0.55336 c -0.159784,-0.0435 -0.343878,-0.0589 -0.58057,-0.0732 -0.541684,-0.0293 -1.055577,-0.0208 -1.574542,0 -0.236694,0.0143 -0.420788,0.0297 -0.5805726,0.0732 l -2.0274647,0.55336 -1.917236,-2.42404 c 1.4005524,-0.13533 2.4466575,-0.69897 3.1490825,-1.44041 0.23685,-0.25 0.434727,-0.51852 0.5967707,-0.79634 0.2810051,0.59232 0.7909651,1.09712 1.4287501,1.49937 0.986473,0.6222 2.298072,1.03711 3.719936,1.2564 0.181318,0.0287 0.351486,-0.0953 0.379703,-0.27668 0.02712,-0.18061 -0.09684,-0.34917 -0.277326,-0.3771 -1.356204,-0.20916 -2.597036,-0.61519 -3.469822,-1.16568 -0.856715,-0.54036 -1.338716,-1.18282 -1.356179,-1.94129 0.09857,-0.3547 0.146438,-0.70693 0.146438,-1.03933 -6.96e-4,-0.18221 -0.148246,-0.32975 -0.3304596,-0.33046 -0.1834762,-10e-4 -0.3329849,0.14698 -0.3336984,0.33046 0,0.74092 -0.3025682,1.66284 -0.9868421,2.38514 -0.6842727,0.72228 -1.7439646,1.26417 -3.3253269,1.26417 H 4.6531345 c -0.2398325,0 -0.4675791,0.0517 -0.6738778,0.1445 -0.5999362,-0.11523 -1.0617661,-0.4272 -1.5032659,-0.82227 0.7244737,-0.0395 1.4570723,-0.18663 2.1110548,-0.72118 0.4299746,0.0724 0.7302496,0.0712 0.7302496,0.0712 0.1832235,7.3e-4 0.3323358,-0.14724 0.3330501,-0.33046 7.299e-4,-0.18425 -0.1488139,-0.33377 -0.3330501,-0.33306 -0.4817086,-0.0125 -0.8260174,-0.094 -1.3057024,-0.23068 -0.4647094,-0.15491 -0.9416606,-0.40126 -1.2920306,-0.81125 0.7552076,0.1362 1.565168,-0.0318 2.380921,-0.30519 0.1123851,-0.0483 0.1819942,-0.1306 0.2070186,-0.23004 z m 0.4089348,5.8874 c -0.013433,-0.18377 -0.1740276,-0.32137 -0.3576736,-0.30649 -0.182404,0.0138 -0.3192199,0.17264 -0.3058369,0.35508 0.024848,0.33552 0.059748,0.65436 0.1082084,0.95963 L 4.0706186,285.12212 C 3.8162122,284.97513 3.6591658,284.70778 3.6591658,284.4165 v -0.33046 c 0,-0.3743 0.2018631,-0.69778 0.5248468,-0.87993 0.1556329,-0.079 0.3074475,-0.11661 0.4691218,-0.11661 h 0.5028181 l 2.1298424,2.70265 c -0.3952846,0.31635 -0.64148,0.80219 -0.64148,1.3309 v 0.80347 C 6.3184094,287.4259 6.1034612,286.92295 5.9497023,286.32701 5.8266161,285.82712 5.759146,285.32197 5.7164366,284.74502 Z m 13.2021744,-0.65898 v 0.33046 c 0,0.29128 -0.154456,0.55863 -0.408863,0.70562 l -1.093107,0.63241 c 0.04856,-0.30566 0.08398,-0.62492 0.108861,-0.96092 0.01338,-0.18267 -0.12382,-0.34162 -0.306484,-0.35508 -0.182671,-0.0134 -0.341619,0.12389 -0.355082,0.30649 -0.04256,0.57479 -0.109664,1.07835 -0.233588,1.58328 -0.155739,0.60076 -0.37106,1.10251 -0.696881,1.60208 v -0.80736 c 3e-6,-0.52838 -0.24474,-1.01388 -0.638887,-1.33026 l 2.129841,-2.70329 h 0.498928 c 0.560665,0.006 0.995267,0.44669 0.995267,0.99657 z m -6.881329,1.43263 c 0.218441,0.0132 0.403413,0.0396 0.445795,0.0512 l 2.022929,0.55141 c 0.453844,0.12376 0.763947,0.53133 0.763944,1.00175 v 2.2698 c 3e-6,0.29303 -0.155457,0.56302 -0.408862,0.71016 l -1.739122,1.00887 c -0.295178,0.1714 -1.071884,0.31621 -1.831781,0.31621 -0.759899,0 -1.5391961,-0.14481 -1.834374,-0.31621 l -1.738475,-1.00887 c -0.2534063,-0.14714 -0.4095104,-0.41711 -0.4095104,-0.71016 8.294e-4,-0.75691 0,-1.51086 0,-2.2698 0,-0.47042 0.3126936,-0.87797 0.7665361,-1.00175 l 2.0209863,-0.55141 c 0.04238,-0.0113 0.229298,-0.038 0.44774,-0.0512 0.514314,-0.0303 0.998039,-0.0187 1.494194,0 z m -2.8607372,1.6996 c -0.1753662,0.0505 -0.2769867,0.23322 -0.2274334,0.40886 0.050243,0.17563 0.2330231,0.2776 0.408862,0.22808 0.5424878,-0.155 1.0858266,-0.31022 1.6283226,-0.46522 0.198223,-0.0566 0.409563,-0.0566 0.607786,0 0.542495,0.155 1.083241,0.31022 1.625729,0.46522 0.176664,0.0512 0.36124,-0.0512 0.411455,-0.22808 0.04955,-0.17564 -0.05207,-0.35832 -0.227434,-0.40886 -0.542497,-0.15501 -1.086483,-0.31022 -1.62897,-0.46523 -0.31556,-0.0845 -0.671036,-0.0799 -0.969351,0 z m 2.0870732,0.7795 c -0.125589,0.002 -0.250697,0.0208 -0.372578,0.0557 l -0.854658,0.24493 c -0.1756274,0.0503 -0.2775865,0.23302 -0.2280821,0.40887 0.049365,0.17772 0.2342061,0.28107 0.4114551,0.23002 l 0.854659,-0.24493 c 0.14092,-0.0403 0.290618,-0.0403 0.431541,0 l 0.854657,0.24493 c 0.176422,0.0494 0.359463,-0.0537 0.408862,-0.23002 0.0495,-0.17585 -0.05245,-0.35861 -0.228081,-0.40887 l -0.854658,-0.24493 c -0.138131,-0.0395 -0.280783,-0.0582 -0.423117,-0.0557 z m -2.6281241,1.06395 c 7.298e-4,0.18323 0.1498284,0.33117 0.3330513,0.33046 0.1822123,-7.2e-4 0.3297499,-0.14825 0.3304596,-0.33046 7.297e-4,-0.18323 -0.1472354,-0.33234 -0.3309662,-0.33306 -0.1837307,-7.1e-4 -0.3332657,0.14883 -0.3325447,0.33306 z m 4.6445731,0 c 7.3e-4,0.18323 0.149827,0.33117 0.333051,0.33046 0.182213,-7.2e-4 0.329749,-0.14825 0.33046,-0.33046 7.3e-4,-0.18323 -0.147235,-0.33234 -0.330966,-0.33306 -0.183731,-7.1e-4 -0.333266,0.14883 -0.332545,0.33306 z m -2.016449,0.28769 c -0.125584,0.003 -0.250686,0.0208 -0.372578,0.0557 l -0.213178,0.0616 c -0.176676,0.0505 -0.278652,0.23497 -0.227433,0.41144 0.05049,0.17669 0.234985,0.27865 0.411454,0.22745 l 0.212531,-0.0609 c 0.140898,-0.0403 0.290641,-0.0403 0.431541,0 l 0.212531,0.0609 c 0.17585,0.05 0.358985,-0.0518 0.40951,-0.22745 0.05117,-0.17665 -0.05115,-0.36124 -0.228082,-0.41144 l -0.213179,-0.0616 c -0.138144,-0.0395 -0.28079,-0.0582 -0.423117,-0.0557 z m 3.011715,1.86223 v 0.77562 c -0.04624,0.1161 -0.202713,0.4593 -0.565668,0.82226 -0.445503,0.44551 -1.175401,0.89613 -2.41948,0.89613 -1.244082,0 -1.9739783,-0.45062 -2.4194811,-0.89613 -0.3629551,-0.36296 -0.5194215,-0.70614 -0.5656683,-0.82226 v -0.77496 l 0.8177241,0.4756 c 0.5310975,0.30837 1.3406503,0.40368 2.1674253,0.40368 0.826773,0 1.633734,-0.0953 2.164832,-0.40368 z m -6.4763542,1.25122 c 0.1145894,0.2167 0.3057872,0.51897 0.6013064,0.81449 0.5497628,0.54976 1.4799409,1.09181 2.8898998,1.09181 1.409956,0 2.337544,-0.54205 2.887306,-1.09181 0.295567,-0.29557 0.488012,-0.59779 0.60325,-0.81449 l 5.032053,1.83567 c 0.446363,0.17359 0.745236,0.59263 0.765241,1.06784 H 2.0023339 c 0.019873,-0.47518 0.3163054,-0.89427 0.7626489,-1.06784 z"
       sodipodi:nodetypes="csscccscccccsccscccccscccsscscscsscsccscccccccccsccssccccccssccccccccccscccccscccccssccccsccccccccccssccccscccscccccccsccccsscccccsccccccccscccccccscccsccccccccsssssscsssccssccccccsccssscccscccssscccccccccc" />
  </g>
</svg>
